# OBJ written from /Users/tmslnz/Work/1506 - HTC at Lovebox with BAT/dodecahedron.obj
# Units	meters

o Mesh
v 0 -0.618034 -1.61803
v -1 -1 -1
v -0.695742 -5.0822e-24 -1.1175
v 1 -1 -1
v 0.695742 0 -1.1175
v 0 0.618034 -1.61803
v -1 1 -1
v 1 1 -1
v -1.61803 0 -0.618034
v -0.618034 -1.61803 0
v 0 -1.1175 -0.695742
v -1.1175 -0.695742 0
v 1.61803 0 -0.618034
v 0.618034 -1.61803 0
v 1.1175 -0.695742 5.0822e-24
v -0.618034 1.61803 0
v -5.0822e-24 1.1175 -0.695742
v -1.1175 0.695742 5.0822e-24
v 0.618034 1.61803 0
v 1.1175 0.695742 0
v -1.61803 0 0.618034
v 0 -1.1175 0.695742
v 1.61803 0 0.618034
v 0 1.1175 0.695742
v 0 -0.618034 1.61803
v -1 -1 1
v -0.695742 5.0822e-24 1.1175
v 1 -1 1
v 0.695742 0 1.1175
v 0 0.618034 1.61803
v -1 1 1
v 1 1 1
vn -0.509784 0.0542176 -0.858592
vn -0.525578 -2.98764e-09 -0.850745
vn -0.563923 0.0334351 -0.82515
vn -0.563923 -0.0334351 -0.82515
vn -0.509784 -0.0542176 -0.858592
vn -0.476208 0 -0.879333
vn -0.0542176 -0.858592 -0.509784
vn -2.98764e-09 -0.850745 -0.525578
vn 0 -0.879333 -0.476208
vn 0.0542176 -0.858592 -0.509784
vn 0.0334351 -0.82515 -0.563923
vn -0.0334351 -0.82515 -0.563923
vn 0.563923 -0.0334351 -0.82515
vn 0.525578 2.98764e-09 -0.850745
vn 0.563923 0.0334351 -0.82515
vn 0.509784 0.0542176 -0.858592
vn 0.476208 0 -0.879333
vn 0.509784 -0.0542176 -0.858592
vn 0.0542176 0.858592 -0.509784
vn 2.98764e-09 0.850745 -0.525578
vn 0 0.879333 -0.476208
vn -0.0542176 0.858592 -0.509784
vn -0.0334351 0.82515 -0.563923
vn 0.0334351 0.82515 -0.563923
vn -0.509784 -0.0542176 0.858592
vn -0.525578 2.98764e-09 0.850745
vn -0.563923 -0.0334351 0.82515
vn -0.563923 0.0334351 0.82515
vn -0.509784 0.0542176 0.858592
vn -0.476208 0 0.879333
vn -0.0542176 0.858592 0.509784
vn -2.98764e-09 0.850745 0.525578
vn 0 0.879333 0.476208
vn 0.0542176 0.858592 0.509784
vn 0.0334351 0.82515 0.563923
vn -0.0334351 0.82515 0.563923
vn 0.563923 0.0334351 0.82515
vn 0.525578 -2.98764e-09 0.850745
vn 0.563923 -0.0334351 0.82515
vn 0.509784 -0.0542176 0.858592
vn 0.476208 0 0.879333
vn 0.509784 0.0542176 0.858592
vn 0 -0.879333 0.476208
vn 2.98764e-09 -0.850745 0.525578
vn -0.0542176 -0.858592 0.509784
vn -0.0334351 -0.82515 0.563923
vn 0.0334351 -0.82515 0.563923
vn 0.0542176 -0.858592 0.509784
vn -0.82515 0.563923 0.0334351
vn -0.850745 0.525578 1.49382e-09
vn -0.858592 0.509784 0.0542176
vn -0.879333 0.476208 0
vn -0.858592 0.509784 -0.0542176
vn -0.82515 0.563923 -0.0334351
vn -0.858592 -0.509784 0.0542176
vn -0.850745 -0.525578 -1.49382e-09
vn -0.82515 -0.563923 0.0334351
vn -0.82515 -0.563923 -0.0334351
vn -0.858592 -0.509784 -0.0542176
vn -0.879333 -0.476208 0
vn 0.82515 -0.563923 0.0334351
vn 0.850745 -0.525578 1.49382e-09
vn 0.858592 -0.509784 0.0542176
vn 0.879333 -0.476208 0
vn 0.858592 -0.509784 -0.0542176
vn 0.82515 -0.563923 -0.0334351
vn 0.858592 0.509784 0.0542176
vn 0.850745 0.525578 -1.49382e-09
vn 0.82515 0.563923 0.0334351
vn 0.82515 0.563923 -0.0334351
vn 0.858592 0.509784 -0.0542176
vn 0.879333 0.476208 0
vt 0.5 1
vt 0.5 0.49847
vt 0.975527 0.654509
vt 0.793892 0.0954918
vt 0.206107 0.0954914
vt 0.0244733 0.654508
vt 0.0244717 0.654508
vt 0.5 0.999998
vt 0.975528 0.654508
vt 0.793893 0.0954924
vt 0.206107 0.0954924
vt 0.206108 0.0954918
vt 0.0244726 0.654509
vt 0.975527 0.654508
vt 0.793893 0.0954914
vt 0.793892 0.0954912
vt 0.206108 0.0954932
vt 0.0244719 0.654509
vt 0.5 0.999999
vt 0.975528 0.654507
vt 0.206108 0.0954932
vt 0.0244719 0.654509
vt 0.793892 0.0954912
vt 0.975528 0.654507
vt 0.793892 0.0954912
vt 0.0244719 0.654509
vt 0.5 0.999999
vt 0.975528 0.654508
vt 0.793893 0.0954925
vt 0.206107 0.0954925
vt 0.206107 0.0954924
vt 0.793893 0.0954924
vt 0.5 0.999999
vt 0.975528 0.654507
vt 0.793892 0.0954912
vt 0.206108 0.0954932
mtllib dodecahedron.mtl
usemtl Default
g Default
f 32/1/1 29/2/2 30/3/3
f 30/3/3 29/2/2 25/4/4
f 25/4/4 29/2/2 28/5/5
f 28/5/5 29/2/2 23/6/6
f 23/6/6 29/2/2 32/1/1
f 31/7/7 24/2/8 30/8/9
f 30/8/9 24/2/8 32/9/10
f 32/9/10 24/2/8 19/10/11
f 19/10/11 24/2/8 16/11/12
f 16/11/12 24/2/8 31/7/7
f 25/12/13 27/2/14 30/13/15
f 30/13/15 27/2/14 31/1/16
f 31/1/16 27/2/14 21/14/17
f 21/14/17 27/2/14 26/15/18
f 26/15/18 27/2/14 25/12/13
f 28/7/19 22/2/20 25/8/21
f 25/8/21 22/2/20 26/9/22
f 26/9/22 22/2/20 10/10/23
f 10/10/23 22/2/20 14/11/24
f 14/11/24 22/2/20 28/7/19
f 4/15/25 5/2/26 1/12/27
f 1/12/27 5/2/26 6/13/28
f 6/13/28 5/2/26 8/1/29
f 8/1/29 5/2/26 13/14/30
f 13/14/30 5/2/26 4/15/25
f 2/16/31 11/2/32 1/17/33
f 1/17/33 11/2/32 4/18/34
f 4/18/34 11/2/32 14/19/35
f 14/19/35 11/2/32 10/20/36
f 10/20/36 11/2/32 2/16/31
f 6/3/37 3/2/38 1/4/39
f 1/4/39 3/2/38 2/5/40
f 2/5/40 3/2/38 9/6/41
f 9/6/41 3/2/38 7/1/42
f 7/1/42 3/2/38 6/3/37
f 6/21/43 17/2/44 7/22/45
f 7/22/45 17/2/44 16/19/46
f 16/19/46 17/2/44 19/20/47
f 19/20/47 17/2/44 8/23/48
f 8/23/48 17/2/44 6/21/43
f 23/24/49 15/2/50 28/25/51
f 28/25/51 15/2/50 14/17/52
f 14/17/52 15/2/50 4/26/53
f 4/26/53 15/2/50 13/27/54
f 13/27/54 15/2/50 23/24/49
f 32/28/55 20/2/56 23/29/57
f 23/29/57 20/2/56 13/30/58
f 13/30/58 20/2/56 8/7/59
f 8/7/59 20/2/56 19/8/60
f 19/8/60 20/2/56 32/28/55
f 21/31/61 18/2/62 31/7/63
f 31/7/63 18/2/62 16/8/64
f 16/8/64 18/2/62 7/28/65
f 7/28/65 18/2/62 9/32/66
f 9/32/66 18/2/62 21/31/61
f 26/18/67 12/2/68 21/33/69
f 21/33/69 12/2/68 9/34/70
f 9/34/70 12/2/68 2/35/71
f 2/35/71 12/2/68 10/36/72
f 10/36/72 12/2/68 26/18/67
