# OBJ written from /Users/tmslnz/Work/1506 - HTC at Lovebox with BAT/pillow-case.obj
# Units	meters

o Mesh
v -0.0164946 0.00227 -0.0398216
v -0.0398216 0.00227 -0.0164946
v -0.0398216 0.00227 0.0164946
v -0.0164946 0.00227 0.0398216
v 0.0164946 0.00227 0.0398216
v 0.0398216 0.00227 0.0164946
v 0.0398216 0.00227 -0.0164946
v 0.0164946 0.00227 -0.0398216
v 0 0.00353 0
v -0.0653281 0 -0.0653282
v -0.0653282 0 0.0653281
v 0.0653281 0 0.0653282
v 0.0653282 0 -0.0653281
v -3.72529e-09 0 0.0653282
v -0.0653282 0 -3.72529e-09
v 3.72529e-09 0 -0.0653282
v 0.0653282 0 3.72529e-09
v -0.0164946 -0.00227 -0.0398216
v -0.0398216 -0.00227 -0.0164946
v -0.0398216 -0.00227 0.0164946
v -0.0164946 -0.00227 0.0398216
v 0.0164946 -0.00227 0.0398216
v 0.0398216 -0.00227 0.0164946
v 0.0398216 -0.00227 -0.0164946
v 0.0164946 -0.00227 -0.0398216
v 2.1615e-19 -0.00353 -1.01049e-11
v -0.0653281 0 -0.0653282
v -0.0653282 0 0.0653281
v 0.0653281 0 0.0653282
v 0.0653282 0 -0.0653281
v -3.72529e-09 0 0.0653282
v -0.0653282 0 -3.72529e-09
v 3.72529e-09 0 -0.0653282
v 0.0653282 0 3.72529e-09
vn 0.0523853 0.998571 -0.0105795
vn 0.0105795 0.998571 -0.0523853
vn 0 1 0
vn -0.0105795 0.998571 -0.0523853
vn -0.0523853 0.998571 -0.0105795
vn -0.0523853 0.998571 0.0105795
vn -0.0105795 0.998571 0.0523853
vn 0.0105795 0.998571 0.0523853
vn 0.0523853 0.998571 0.0105795
vn -0.0397716 0.998417 -0.0397716
vn -0.0397716 0.998417 0.0397716
vn 0.0397716 0.998417 0.0397716
vn -4.71179e-08 0.996063 0.0886462
vn -0.0886462 0.996063 -4.71179e-08
vn 4.71179e-08 0.996063 -0.0886462
vn 0.0397716 0.998417 -0.0397716
vn 0.0886462 0.996063 4.71799e-08
vn 0.0523853 -0.998571 -0.0105795
vn 0 -1 0
vn 0.0105795 -0.998571 -0.0523853
vn -0.0105795 -0.998571 -0.0523853
vn -0.0523853 -0.998571 -0.0105795
vn -0.0523853 -0.998571 0.0105795
vn -0.0105795 -0.998571 0.0523853
vn 0.0105795 -0.998571 0.0523853
vn 0.0523853 -0.998571 0.0105795
vn -0.0397716 -0.998417 -0.0397716
vn -0.0397716 -0.998417 0.0397716
vn 0.0397716 -0.998417 0.0397716
vn -4.71179e-08 -0.996063 0.0886462
vn -0.0886462 -0.996063 -4.71179e-08
vn 4.71179e-08 -0.996063 -0.0886462
vn 0.0397716 -0.998417 -0.0397716
vn 0.0886462 -0.996063 4.71799e-08
mtllib pillow-case.mtl
usemtl Default
g Default
f 7//1 8//2 9//3
f 1//4 2//5 9//3
f 3//6 4//7 9//3
f 5//8 6//9 9//3
f 10//10 2//5 1//4
f 11//11 4//7 3//6
f 6//9 5//8 12//12
f 12//12 5//8 14//13
f 5//8 9//3 4//7
f 4//7 11//11 14//13
f 5//8 4//7 14//13
f 11//11 3//6 15//14
f 9//3 2//5 3//6
f 2//5 10//10 15//14
f 3//6 2//5 15//14
f 1//4 9//3 8//2
f 10//10 1//4 16//15
f 8//2 13//16 16//15
f 1//4 8//2 16//15
f 7//1 9//3 6//9
f 12//12 17//17 6//9
f 7//1 13//16 8//2
f 7//1 6//9 17//17
f 13//16 7//1 17//17
f 24//18 26//19 25//20
f 18//21 26//19 19//22
f 20//23 26//19 21//24
f 22//25 26//19 23//26
f 27//27 18//21 19//22
f 28//28 20//23 21//24
f 23//26 29//29 22//25
f 29//29 31//30 22//25
f 22//25 21//24 26//19
f 21//24 31//30 28//28
f 22//25 31//30 21//24
f 28//28 32//31 20//23
f 26//19 20//23 19//22
f 19//22 32//31 27//27
f 20//23 32//31 19//22
f 18//21 25//20 26//19
f 27//27 33//32 18//21
f 25//20 33//32 30//33
f 18//21 33//32 25//20
f 24//18 23//26 26//19
f 29//29 23//26 34//34
f 24//18 25//20 30//33
f 24//18 34//34 23//26
f 30//33 34//34 24//18
